<?xml version='1.0' encoding='UTF-8'?>
<svg width="29mm" height="29mm" version="1.1" viewBox="0 0 29 29" fill_color="#2c2c2c" back_color="#faf8f4" xmlns="http://www.w3.org/2000/svg"><path d="M0,0H1V1H0zM1,0H2V1H1zM2,0H3V1H2zM3,0H4V1H3zM4,0H5V1H4zM5,0H6V1H5zM6,0H7V1H6zM10,0H11V1H10zM12,0H13V1H12zM13,0H14V1H13zM17,0H18V1H17zM18,0H19V1H18zM19,0H20V1H19zM20,0H21V1H20zM22,0H23V1H22zM23,0H24V1H23zM24,0H25V1H24zM25,0H26V1H25zM26,0H27V1H26zM27,0H28V1H27zM28,0H29V1H28zM0,1H1V2H0zM6,1H7V2H6zM8,1H9V2H8zM10,1H11V2H10zM14,1H15V2H14zM15,1H16V2H15zM16,1H17V2H16zM18,1H19V2H18zM20,1H21V2H20zM22,1H23V2H22zM28,1H29V2H28zM0,2H1V3H0zM2,2H3V3H2zM3,2H4V3H3zM4,2H5V3H4zM6,2H7V3H6zM12,2H13V3H12zM14,2H15V3H14zM19,2H20V3H19zM20,2H21V3H20zM22,2H23V3H22zM24,2H25V3H24zM25,2H26V3H25zM26,2H27V3H26zM28,2H29V3H28zM0,3H1V4H0zM2,3H3V4H2zM3,3H4V4H3zM4,3H5V4H4zM6,3H7V4H6zM8,3H9V4H8zM9,3H10V4H9zM10,3H11V4H10zM12,3H13V4H12zM13,3H14V4H13zM14,3H15V4H14zM15,3H16V4H15zM16,3H17V4H16zM17,3H18V4H17zM22,3H23V4H22zM24,3H25V4H24zM25,3H26V4H25zM26,3H27V4H26zM28,3H29V4H28zM0,4H1V5H0zM2,4H3V5H2zM3,4H4V5H3zM4,4H5V5H4zM6,4H7V5H6zM9,4H10V5H9zM16,4H17V5H16zM19,4H20V5H19zM20,4H21V5H20zM22,4H23V5H22zM24,4H25V5H24zM25,4H26V5H25zM26,4H27V5H26zM28,4H29V5H28zM0,5H1V6H0zM6,5H7V6H6zM8,5H9V6H8zM9,5H10V6H9zM11,5H12V6H11zM12,5H13V6H12zM13,5H14V6H13zM15,5H16V6H15zM16,5H17V6H16zM22,5H23V6H22zM28,5H29V6H28zM0,6H1V7H0zM1,6H2V7H1zM2,6H3V7H2zM3,6H4V7H3zM4,6H5V7H4zM5,6H6V7H5zM6,6H7V7H6zM8,6H9V7H8zM10,6H11V7H10zM12,6H13V7H12zM14,6H15V7H14zM16,6H17V7H16zM18,6H19V7H18zM20,6H21V7H20zM22,6H23V7H22zM23,6H24V7H23zM24,6H25V7H24zM25,6H26V7H25zM26,6H27V7H26zM27,6H28V7H27zM28,6H29V7H28zM9,7H10V8H9zM10,7H11V8H10zM11,7H12V8H11zM14,7H15V8H14zM15,7H16V8H15zM18,7H19V8H18zM19,7H20V8H19zM20,7H21V8H20zM0,8H1V9H0zM1,8H2V9H1zM2,8H3V9H2zM3,8H4V9H3zM4,8H5V9H4zM6,8H7V9H6zM7,8H8V9H7zM8,8H9V9H8zM9,8H10V9H9zM11,8H12V9H11zM13,8H14V9H13zM14,8H15V9H14zM15,8H16V9H15zM17,8H18V9H17zM19,8H20V9H19zM21,8H22V9H21zM23,8H24V9H23zM25,8H26V9H25zM27,8H28V9H27zM0,9H1V10H0zM3,9H4V10H3zM5,9H6V10H5zM8,9H9V10H8zM10,9H11V10H10zM12,9H13V10H12zM16,9H17V10H16zM17,9H18V10H17zM18,9H19V10H18zM19,9H20V10H19zM22,9H23V10H22zM23,9H24V10H23zM24,9H25V10H24zM28,9H29V10H28zM0,10H1V11H0zM4,10H5V11H4zM6,10H7V11H6zM7,10H8V11H7zM10,10H11V11H10zM15,10H16V11H15zM18,10H19V11H18zM21,10H22V11H21zM22,10H23V11H22zM24,10H25V11H24zM0,11H1V12H0zM1,11H2V12H1zM3,11H4V12H3zM4,11H5V12H4zM8,11H9V12H8zM12,11H13V12H12zM14,11H15V12H14zM15,11H16V12H15zM16,11H17V12H16zM18,11H19V12H18zM20,11H21V12H20zM23,11H24V12H23zM24,11H25V12H24zM25,11H26V12H25zM27,11H28V12H27zM4,12H5V13H4zM5,12H6V13H5zM6,12H7V13H6zM7,12H8V13H7zM8,12H9V13H8zM9,12H10V13H9zM10,12H11V13H10zM12,12H13V13H12zM13,12H14V13H13zM14,12H15V13H14zM17,12H18V13H17zM20,12H21V13H20zM25,12H26V13H25zM26,12H27V13H26zM1,13H2V14H1zM2,13H3V14H2zM3,13H4V14H3zM5,13H6V14H5zM14,13H15V14H14zM16,13H17V14H16zM19,13H20V14H19zM20,13H21V14H20zM22,13H23V14H22zM23,13H24V14H23zM24,13H25V14H24zM28,13H29V14H28zM2,14H3V15H2zM3,14H4V15H3zM5,14H6V15H5zM6,14H7V15H6zM7,14H8V15H7zM8,14H9V15H8zM11,14H12V15H11zM12,14H13V15H12zM13,14H14V15H13zM15,14H16V15H15zM20,14H21V15H20zM21,14H22V15H21zM23,14H24V15H23zM25,14H26V15H25zM26,14H27V15H26zM0,15H1V16H0zM1,15H2V16H1zM3,15H4V16H3zM7,15H8V16H7zM9,15H10V16H9zM11,15H12V16H11zM15,15H16V16H15zM16,15H17V16H16zM19,15H20V16H19zM21,15H22V16H21zM23,15H24V16H23zM27,15H28V16H27zM1,16H2V17H1zM2,16H3V17H2zM4,16H5V17H4zM5,16H6V17H5zM6,16H7V17H6zM8,16H9V17H8zM11,16H12V17H11zM13,16H14V17H13zM14,16H15V17H14zM15,16H16V17H15zM16,16H17V17H16zM17,16H18V17H17zM25,16H26V17H25zM26,16H27V17H26zM0,17H1V18H0zM2,17H3V18H2zM4,17H5V18H4zM5,17H6V18H5zM7,17H8V18H7zM8,17H9V18H8zM9,17H10V18H9zM12,17H13V18H12zM16,17H17V18H16zM18,17H19V18H18zM19,17H20V18H19zM20,17H21V18H20zM22,17H23V18H22zM23,17H24V18H23zM24,17H25V18H24zM26,17H27V18H26zM28,17H29V18H28zM0,18H1V19H0zM2,18H3V19H2zM4,18H5V19H4zM5,18H6V19H5zM6,18H7V19H6zM7,18H8V19H7zM9,18H10V19H9zM14,18H15V19H14zM15,18H16V19H15zM16,18H17V19H16zM17,18H18V19H17zM18,18H19V19H18zM20,18H21V19H20zM21,18H22V19H21zM23,18H24V19H23zM26,18H27V19H26zM0,19H1V20H0zM5,19H6V20H5zM8,19H9V20H8zM9,19H10V20H9zM12,19H13V20H12zM15,19H16V20H15zM18,19H19V20H18zM20,19H21V20H20zM21,19H22V20H21zM22,19H23V20H22zM23,19H24V20H23zM27,19H28V20H27zM0,20H1V21H0zM3,20H4V21H3zM4,20H5V21H4zM6,20H7V21H6zM7,20H8V21H7zM9,20H10V21H9zM10,20H11V21H10zM12,20H13V21H12zM13,20H14V21H13zM15,20H16V21H15zM17,20H18V21H17zM18,20H19V21H18zM20,20H21V21H20zM21,20H22V21H21zM22,20H23V21H22zM23,20H24V21H23zM24,20H25V21H24zM26,20H27V21H26zM27,20H28V21H27zM28,20H29V21H28zM8,21H9V22H8zM13,21H14V22H13zM16,21H17V22H16zM17,21H18V22H17zM18,21H19V22H18zM20,21H21V22H20zM24,21H25V22H24zM25,21H26V22H25zM26,21H27V22H26zM27,21H28V22H27zM28,21H29V22H28zM0,22H1V23H0zM1,22H2V23H1zM2,22H3V23H2zM3,22H4V23H3zM4,22H5V23H4zM5,22H6V23H5zM6,22H7V23H6zM8,22H9V23H8zM9,22H10V23H9zM11,22H12V23H11zM12,22H13V23H12zM13,22H14V23H13zM14,22H15V23H14zM15,22H16V23H15zM16,22H17V23H16zM17,22H18V23H17zM19,22H20V23H19zM20,22H21V23H20zM22,22H23V23H22zM24,22H25V23H24zM25,22H26V23H25zM26,22H27V23H26zM0,23H1V24H0zM6,23H7V24H6zM9,23H10V24H9zM11,23H12V24H11zM14,23H15V24H14zM16,23H17V24H16zM18,23H19V24H18zM19,23H20V24H19zM20,23H21V24H20zM24,23H25V24H24zM27,23H28V24H27zM28,23H29V24H28zM0,24H1V25H0zM2,24H3V25H2zM3,24H4V25H3zM4,24H5V25H4zM6,24H7V25H6zM8,24H9V25H8zM10,24H11V25H10zM11,24H12V25H11zM17,24H18V25H17zM20,24H21V25H20zM21,24H22V25H21zM22,24H23V25H22zM23,24H24V25H23zM24,24H25V25H24zM26,24H27V25H26zM27,24H28V25H27zM28,24H29V25H28zM0,25H1V26H0zM2,25H3V26H2zM3,25H4V26H3zM4,25H5V26H4zM6,25H7V26H6zM8,25H9V26H8zM9,25H10V26H9zM10,25H11V26H10zM12,25H13V26H12zM13,25H14V26H13zM17,25H18V26H17zM18,25H19V26H18zM20,25H21V26H20zM25,25H26V26H25zM26,25H27V26H26zM27,25H28V26H27zM28,25H29V26H28zM0,26H1V27H0zM2,26H3V27H2zM3,26H4V27H3zM4,26H5V27H4zM6,26H7V27H6zM8,26H9V27H8zM9,26H10V27H9zM10,26H11V27H10zM13,26H14V27H13zM14,26H15V27H14zM15,26H16V27H15zM16,26H17V27H16zM18,26H19V27H18zM20,26H21V27H20zM21,26H22V27H21zM22,26H23V27H22zM23,26H24V27H23zM24,26H25V27H24zM25,26H26V27H25zM26,26H27V27H26zM27,26H28V27H27zM0,27H1V28H0zM6,27H7V28H6zM8,27H9V28H8zM9,27H10V28H9zM12,27H13V28H12zM13,27H14V28H13zM16,27H17V28H16zM20,27H21V28H20zM22,27H23V28H22zM23,27H24V28H23zM24,27H25V28H24zM25,27H26V28H25zM27,27H28V28H27zM0,28H1V29H0zM1,28H2V29H1zM2,28H3V29H2zM3,28H4V29H3zM4,28H5V29H4zM5,28H6V29H5zM6,28H7V29H6zM8,28H9V29H8zM12,28H13V29H12zM14,28H15V29H14zM17,28H18V29H17zM19,28H20V29H19zM22,28H23V29H22zM23,28H24V29H23zM26,28H27V29H26z" id="qr-path" fill="#000000" fill-opacity="1" fill-rule="nonzero" stroke="none" /></svg>